<svg xmlns="http://www.w3.org/2000/svg" width="95" height="95" viewBox="0 0 95 95">
  <g id="icons8-instagram_7_" data-name="icons8-instagram (7)" transform="translate(-25.6 -25.6)">
    <g id="Group_10" data-name="Group 10" transform="translate(25.6 25.6)">
      <path id="Path_2" data-name="Path 2" d="M53.3,25.6A27.741,27.741,0,0,0,25.6,53.316V92.9a27.741,27.741,0,0,0,27.716,27.7H92.9a27.741,27.741,0,0,0,27.7-27.716V53.3A27.741,27.741,0,0,0,92.884,25.6Zm47.508,15.833a3.958,3.958,0,1,1-3.958,3.958A3.96,3.96,0,0,1,100.808,41.433ZM73.1,49.35A23.75,23.75,0,1,1,49.35,73.1,23.774,23.774,0,0,1,73.1,49.35Zm0,7.917A15.833,15.833,0,1,0,88.933,73.1,15.833,15.833,0,0,0,73.1,57.267Z" transform="translate(-25.6 -25.6)" fill="#f4f8fb"/>
    </g>
  </g>
</svg>
