<svg xmlns="http://www.w3.org/2000/svg" width="95" height="95" viewBox="0 0 95 95">
  <g id="icons8-tiktok_2_" data-name="icons8-tiktok (2)" transform="translate(-34.133 -34.133)">
    <g id="Group_11" data-name="Group 11" transform="translate(34.133 34.133)">
      <path id="Path_3" data-name="Path 3" d="M120.5,34.133H42.77a8.634,8.634,0,0,0-8.636,8.636V120.5a8.634,8.634,0,0,0,8.636,8.636H120.5a8.634,8.634,0,0,0,8.636-8.636V42.77A8.637,8.637,0,0,0,120.5,34.133Zm-5.661,40.91c-.561.052-1.127.086-1.7.086a18.441,18.441,0,0,1-15.433-8.338v28.4A20.991,20.991,0,1,1,76.715,74.2c.44,0,.868.039,1.3.065V84.609a10.69,10.69,0,1,0-1.3,21.3c5.92,0,11.145-4.664,11.145-10.58,0-.238.1-48.234.1-48.234h9.884a18.431,18.431,0,0,0,16.988,16.457Z" transform="translate(-34.133 -34.133)" fill="#f4f8fb"/>
    </g>
  </g>
</svg>
